<svg xmlns="http://www.w3.org/2000/svg" width="676" height="676"><path style="fill:#ffffff; stroke:none;" d="M322 9.42438c-20.775 2.72782-41.359 3.44112-62 8.00002-53.882 11.901-104.512 37.4723-146 73.8619C81.7449 119.578 53.5005 154.517 34.2469 193-40.0493 341.497 13.8103 528.631 155 616.575 224.844 660.079 309.038 674.624 390 663.718 540.678 643.42 669.228 510.755 675.961 357 678.257 304.551 669.676 251.885 647.691 204 603.849 108.505 511.748 36.5467 409 16c-27.313-5.4618-59.186-10.22766-87-6.57562M603 196c-35.333 13.236-76.619 16.919-112 3.947-40.865-14.983-92.13-49.371-137-31.743-41.579 16.336-75.575 52.485-107.999 81.966-17.644 16.042-14.176 37.948 11.999 39.74C272.858 290.928 284.758 281.906 296 273.474c23.831-17.874 52.057-48.245 85-37.728C399.278 241.582 414.435 255.638 429 267.576c26.482 21.705 51.94 44.642 78 66.845C516.409 342.438 525.609 350.692 535 358.729 538.619 361.827 543.227 367.475 548 368.621 554.678 370.224 568.535 360.864 575 358.425 595.207 350.803 619.195 341.453 641 341 641 378.765 633.255 415.274 618.281 450c-14.16 32.838-35.005 63.724-60.281 89-100.105 100.105-265.263 123.925-386 45.305C124.249 553.211 86.8013 508.942 61.7562 458 43.311 420.482 35 378.58 35 337 55.6598 341.006 76.2144 346.507 96 353.695 104.766 356.88 115.521 364.743 124.715 365.605 128.301 365.941 132.011 361.925 135 360.324 140.393 357.436 146.934 355.174 153 354.3 162.501 352.931 172.602 354.698 181 359.313 184.734 361.365 188.531 366.352 192.576 367.336 196.71 368.341 204.48 363.151 209 362.439 224.548 359.991 242.488 366.52 250 381 269.478 374.664 291.275 377.224 301.11 398 303.886 403.865 302.642 416.19 306.603 420.436 309.925 423.997 317.708 424.804 322 427.468 332.673 434.092 339.111 445.722 340.711 458 342.022 468.064 339.601 477.756 335.796 487 334.284 490.674 328.871 496.988 330.164 500.996 333.233 510.51 350.4 514.97 359 515.829 363.648 516.294 368.509 516.118 373 514.791 382.381 512.018 395.772 502.491 390.424 491 387.589 484.91 381.1 481.008 376 477 373.115 474.732 359.74 466.246 367.244 462.072 372.735 459.017 382.331 470.085 386 473.285 392.916 479.319 399.483 486.869 408 490.651 421.51 496.651 442.126 490.482 446.196 475 448.2 467.377 442.159 461.325 436.996 456.715 426.73 447.547 416.733 437.733 407 428 404.127 425.127 390.718 415.174 396.337 410.647 402.024 406.066 415.097 422.843 419 426.285c17.769 15.673 38.625 47.435 64.999 27.951C487.361 451.753 490.37 448.728 492.326 445 498.244 433.722 491.918 425.918 484 418c-11.663-11.663-23.931-22.847-36-34.09C444.704 380.84 427.716 367.628 432.623 362.619 435.01 360.182 438.774 362.284 441 363.804 447.965 368.56 453.703 375.161 460 380.715 478.134 396.708 502.406 434.997 530 415.211 533.154 412.95 535.955 410.16 538.211 407 549.484 391.205 537.858 379.594 526 369.155 503.085 348.982 480.443 328.508 457 308.92c-18.388-15.365-37.162-30.118-56-44.92C389.155 254.693 376.987 244.94 361 247.301c-11.408 1.685-20.956 10.239-30 16.699-26.537 18.954-50.636 43.989-86 35.105-27.555-6.923-35.105-30.137-16.714-51.105 18.12-20.658 39.776-38.922 61.714-55.373C300.967 184.402 312.27 175.328 325 170v-2C312.945 165.236 301.539 162.231 289 163.089 244.46 166.14 207.678 193.769 165 202.789 137.13 208.68 103.497 197.123 76 192c13.2125-27.929 38.889-54.232 62-74.13 85.426-73.5513 211.34-94.0237 316-51.4179C492.163 81.9878 525.974 105.974 555 135 573.186 153.186 590.839 173.152 603 196M175 419C173.046 425.756 171.246 431.863 172.301 439 175.334 459.529 196.82 462.14 213 457 212.903 462.405 212.198 467.792 214.133 473 221.19 491.998 242.257 492.073 258 486 258.887 506.344 278.841 519.646 298 511.651c24.254-10.121 49.638-61.375 14-74.102C304.669 434.93 294.761 435.16 287 435 290.023 427.429 292.949 421.458 291.699 413 288.101 388.649 260.677 385.94 243 396c-8.464-28.763-40.975-24.882-58-8C184.146 369.357 162.886 360.028 147 368 135.224 373.909 130.422 388.617 133.61 401 134.847 405.806 137.507 410.395 141.093 413.815 145.175 417.707 150.388 420.216 156 420.826 162.497 421.533 168.756 420.755 175 419z"/></svg>